<svg xmlns="http://www.w3.org/2000/svg" width="256" height="256"><path fill-opacity=".016" d="M0 128.004v128.004l128.25-.254 128.25-.254.254-127.75L257.008 0H0v128.004m.485.496c0 70.4.119 99.053.265 63.672.146-35.38.146-92.98 0-128C.604 29.153.485 58.1.485 128.5" fill="#1976D2" fill-rule="evenodd"/><path fill-opacity=".334" d="M41.745 41.755L6 77.51v102l35.755 35.745L77.51 251h101l36.245-36.255L251 178.49v-100l-36.255-36.245L178.49 6h-101L41.745 41.755M197.612 87.75c-1.251 4.189-8.612 37.241-8.612 38.671 0 1.194 1.049 1.579 4.305 1.579h4.306l4.276-18.75a9739.763 9739.763 0 014.803-21c.487-2.08.185-2.25-4.014-2.25-3.459 0-4.666.417-5.064 1.75m-169.089.984C22.946 90.713 19 95.411 19 100.071c0 3.751 4.244 8.546 8.783 9.924C38.134 113.136 40 114.124 40 116.46c0 3.58-2.635 5.026-9.005 4.939-4.168-.057-6.963-.769-10.272-2.619l-4.546-2.54-1.088 4.323C14.49 122.94 14 125.065 14 125.285c0 1.196 9.375 2.905 15.934 2.904 13.3-.003 20.066-4.352 20.066-12.9 0-5.675-2.222-7.749-12.007-11.206-8.692-3.07-10.625-5.279-7.132-8.146 3.117-2.558 10.275-2.512 16.038.103 2.419 1.097 4.51 1.875 4.645 1.728.136-.148.714-1.978 1.285-4.068.985-3.606.901-3.855-1.646-4.879-4.918-1.977-17.201-2.024-22.66-.087m37.018 9.098c-3.093.522-4.111 1.216-4.651 3.168-1.291 4.671-1.182 4.743 4.86 3.216 6.764-1.709 11.25-.609 11.25 2.759 0 1.642-.653 2.025-3.451 2.025-6.691 0-13.865 2.163-16.752 5.05-3.663 3.662-3.957 10.024-.574 12.393 2.837 1.987 10.013 2.004 13.827.031 2.644-1.367 2.95-1.367 2.95 0 0 1.138 1.125 1.526 4.423 1.526h4.424l2.701-11.434c2.864-12.119 2.745-15.803-.565-17.575-2.536-1.357-13.272-2.032-18.442-1.159M111.5 99c-4.692 2.392-4.5 2.371-4.5.5 0-1.105-1.154-1.5-4.388-1.5h-4.388l-3.177 13.75c-1.747 7.563-3.358 14.313-3.58 15-.285.881.998 1.25 4.352 1.25h4.756l2.463-10.738c2.209-9.637 2.746-10.874 5.228-12.063 6.864-3.285 8.299 1.2 4.734 14.801-1.081 4.125-1.973 7.637-1.983 7.805-.009.167 2.098.167 4.684 0l4.7-.305 2.6-10.5c2.283-9.225 2.929-10.659 5.315-11.812 3.9-1.884 6.684-.711 6.684 2.817 0 2.531-2.131 13.268-3.633 18.303-.475 1.596.027 1.772 4.274 1.5l4.813-.308 2.299-9.5c3.81-15.744 3.218-19.352-3.377-20.589-2.589-.486-4.696-.009-8.65 1.958-4.218 2.1-5.419 2.346-6.226 1.28-1.379-1.823-4.993-3.649-7.223-3.649-1.02 0-3.619.9-5.777 2m58.039-.059c-4.744 2.466-4.626 2.45-3.878.499.501-1.306-.196-1.51-4.275-1.25l-4.873.31-3.722 16c-2.047 8.8-3.971 17.012-4.276 18.25l-.553 2.25H14v5h229v-5h-42.5c-46.621 0-43.523.415-41.906-5.611.521-1.942 1.1-2.074 7.236-1.653 5.787.397 7.133.147 10.17-1.89 4.717-3.165 9-11.716 9-17.97 0-8.971-7.288-13.182-15.461-8.935m50.717-.824c-4.821 1.392-9.762 6.865-11.141 12.339-1.559 6.192-.589 10.716 3.043 14.196 2.69 2.578 3.748 2.879 11.157 3.18 10.253.416 13.191-.611 14.051-4.913.828-4.138.479-4.407-3.223-2.493-4.859 2.513-11.74 2.068-14.762-.954-4.179-4.179-2.847-4.942 9.164-5.258 7.163-.188 11.145-.701 11.653-1.5 1.138-1.791.965-8.54-.278-10.864-2.245-4.194-11.792-6.006-19.664-3.733m.918 7.197c-1.196 1.273-2.174 2.623-2.174 3 0 .378 2.925.686 6.5.686 5.593 0 6.5-.251 6.5-1.8 0-4.594-7.117-5.834-10.826-1.886m-55.518-.052c-1.551 1.134-4.53 10.722-4.62 14.871-.098 4.472 9.768 2.081 12.398-3.005 1.856-3.59 2.06-10.234.366-11.928-1.568-1.568-5.96-1.535-8.144.062m-98.341 9.745c-2.539 1.023-4.48 4.144-3.495 5.62 1.995 2.989 11.18 1.351 11.18-1.994 0-.808.273-2.181.607-3.051.482-1.255-.086-1.569-2.75-1.519-1.846.035-4.34.46-5.542.944m-26.553 39.066c-.955.557-2.229 1.931-2.829 3.053-1.45 2.708 1.105 5.603 5.704 6.466 1.9.356 3.363 1.235 3.363 2.019 0 1.625-3.706 1.831-7.435.414-2.186-.831-2.565-.699-2.565.893 0 2.298 1.89 3.082 7.427 3.082 4.714 0 7.573-2.187 7.573-5.794 0-2.288-2.649-4.206-5.812-4.206-1.069 0-2.472-.637-3.118-1.416-1.632-1.966 1.753-2.982 5.363-1.609 3.535 1.344 3.567 1.336 3.567-.858 0-2.879-7.472-4.238-11.238-2.044m18.602.097c-4.67 2.261-5.714 9.571-1.909 13.375C61.262 171.353 72 170.936 72 166.98c0-1.587-.36-1.67-2.964-.687-3.267 1.233-8.071.116-8.788-2.043-.301-.908 1.247-1.25 5.669-1.25 6.059 0 6.083-.012 6.083-2.927 0-5.407-6.953-8.655-12.636-5.903m49.951-.163c-4.76 1.918-5.946 10.112-2.001 13.819 3.077 2.89 9.466 2.96 12.497.135 3.318-3.091 3.075-10.119-.446-12.888-2.758-2.17-6.361-2.552-10.05-1.066m66.005 1.394c-2.298 1.977-2.771 3.16-2.679 6.691.141 5.361 2.883 7.908 8.515 7.908 4.662 0 8.844-3.503 8.844-7.407 0-8.308-8.526-12.485-14.68-7.192m56.311-1.699c-.386.386-2.261.597-4.166.469l-3.465-.234v8.032c0 7.858.053 8.031 2.452 8.031 2.31 0 2.47-.363 2.75-6.25.282-5.921.43-6.25 2.798-6.25s2.516.329 2.798 6.25c.28 5.887.44 6.25 2.75 6.25 2.342 0 2.452-.281 2.452-6.277 0-7.111-1.816-10.723-5.39-10.723-1.252 0-2.593.316-2.979.702M17 160.8c0 3.956.502 7.302 1.2 8 1.474 1.474 5.27 1.554 7.866.165 1.333-.714 1.934-.714 1.934 0 0 .569 1.125 1.035 2.5 1.035 2.458 0 2.5-.133 2.5-8s-.042-8-2.5-8c-2.383 0-2.5.274-2.5 5.883 0 4.928-.307 5.964-1.889 6.378-3.411.892-4.611-.858-4.611-6.721 0-5.071-.188-5.534-2.25-5.537-2.113-.003-2.25.411-2.25 6.797m68.553-4.55c.379 1.238 1.747 4.884 3.04 8.104 2.189 5.449 2.245 6.058.816 8.822l-1.535 2.969 2.805-.322c2.529-.291 3.219-1.31 6.988-10.323 2.3-5.5 4.216-10.338 4.257-10.75.042-.412-1.049-.75-2.424-.75s-2.512.563-2.526 1.25c-.015.688-.838 3.05-1.83 5.25l-1.803 4-1.751-5.25c-1.486-4.457-2.127-5.25-4.238-5.25-2.116 0-2.384.335-1.799 2.25m41.289 4.498c.188 3.714.806 7.315 1.373 8.002 1.251 1.518 5.214 1.626 7.851.215 1.333-.714 1.934-.714 1.934 0 0 .569 1.125 1.035 2.5 1.035 2.458 0 2.5-.133 2.5-8s-.042-8-2.5-8c-2.383 0-2.5.274-2.5 5.883 0 5.06-.283 5.958-2.018 6.411-3.168.829-4.982-1.852-4.982-7.365 0-4.444-.221-4.929-2.25-4.931-2.145-.002-2.234.313-1.908 6.75m21.366 1.002c.268 7.116.472 7.776 2.49 8.063 2.02.287 2.223-.158 2.5-5.5.299-5.755.334-5.816 3.552-6.126 2.44-.236 3.25-.796 3.25-2.25 0-2.14-2.065-2.508-5.066-.902-1.333.714-1.934.714-1.934 0 0-.569-1.144-1.035-2.542-1.035-2.529 0-2.541.039-2.25 7.75m44.865-6.5c.04.688 1.053 4.175 2.25 7.75 1.881 5.616 2.536 6.542 4.82 6.806 2.412.279 2.757-.137 3.939-4.75.713-2.781 1.647-5.056 2.077-5.056.429 0 1.401 2.137 2.159 4.75 1.14 3.926 1.829 4.804 3.969 5.061 2.421.29 2.753-.201 5.063-7.5 2.457-7.763 2.46-7.813.424-8.148-2.448-.404-3.46 1.021-4.313 6.067-.35 2.073-.962 3.77-1.36 3.77-.398 0-1.3-2.25-2.004-5-1.085-4.231-1.646-5-3.649-5-1.929 0-2.592.787-3.576 4.25-.665 2.338-1.547 4.641-1.96 5.12-.7.81-2.894-5.321-2.906-8.12-.003-.687-1.131-1.25-2.506-1.25-1.375 0-2.467.563-2.427 1.25M61.75 157.08c-2.803 1.633-2.031 2.92 1.75 2.92 3.679 0 4.941-2.233 1.918-3.393-1.891-.726-1.53-.772-3.668.473m49.304.355c-1.613 1.943-.934 7.626 1.06 8.873 2.861 1.79 4.886.1 4.886-4.077 0-5.511-3.206-8.098-5.946-4.796m67.303 1.142c-3.075 4.694 1.165 10.725 5.191 7.383 1.921-1.594 1.853-6.417-.119-8.389-2.169-2.168-3.114-1.981-5.072 1.006" fill="#1976D2" fill-rule="evenodd"/><path fill-opacity=".39" d="M41.745 41.755L6 77.51v101l35.755 35.745L77.51 250h100.711l35.89-35.136L250 179.728V77.49l-35.755-35.745L178.49 6h-101L41.745 41.755M197.479 87.25c-.46 1.253-9.479 39.669-9.479 40.375 0 .206 2.22.375 4.933.375 3.841 0 5.042-.387 5.43-1.75.273-.963 2.349-9.85 4.613-19.75 2.263-9.9 4.305-18.562 4.538-19.25.301-.89-1.018-1.25-4.577-1.25-3.088 0-5.175.478-5.458 1.25m-169.26 1.006C23.179 89.871 19 95.231 19 100.08c0 5.009 2.693 7.928 9.543 10.346 9.491 3.35 11.457 4.469 11.457 6.523 0 4.678-10.64 5.58-18.554 1.574-2.691-1.362-5.262-2.107-5.714-1.655-.453.453-.915 2.765-1.027 5.139l-.205 4.315 5 1.385c6.118 1.693 18.983 1.133 23.096-1.007 4.574-2.378 7.523-6.17 8.091-10.401.428-3.192.052-4.456-2.079-6.989-1.431-1.7-3.747-3.379-5.146-3.73s-5-1.558-8.003-2.681C30.975 101.221 30 100.437 30 98.506c0-4.824 10.444-5.604 17.905-1.337 3.545 2.026 5.024 1.396 5.093-2.169.016-.825.292-2.479.613-3.676.497-1.852.01-2.335-3.264-3.245-4.793-1.33-17.747-1.227-22.128.177m35.064 9.445c-1.608.312-2.396 1.385-2.87 3.911-.803 4.281-.416 4.72 3.013 3.416 4.292-1.632 12.528-1.311 13.229.515.854 2.226.216 2.543-6.894 3.425-9.946 1.233-15.137 4.661-16.366 10.808-.524 2.621-.124 3.649 2.411 6.184 3.624 3.624 7.91 3.989 13.483 1.148 3.033-1.547 3.711-1.628 3.711-.445 0 1.1 1.125 1.374 4.701 1.142l4.701-.305 2.253-9.5c3.255-13.72 3.12-16.557-.905-19.011-2.548-1.554-4.869-1.953-10.75-1.849-4.125.073-8.498.325-9.717.561m46.835 1.368c-2.785 1.698-3.273 1.777-2.762.445.531-1.383-.126-1.574-4.524-1.316l-5.146.302-3.294 14c-1.812 7.7-3.317 14.338-3.343 14.75-.027.412 2.16.75 4.86.75h4.91l2.562-10.673c1.409-5.871 3.137-11.039 3.84-11.485 2.235-1.418 6.804-.94 7.464.78.343.893-.164 5.055-1.125 9.25l-2.263 9.878c-.48 2.103-.186 2.25 4.511 2.25h5.025l2.493-10.635c1.371-5.849 3.096-11.017 3.833-11.485 2.305-1.46 6.858-.999 7.535.764.346.904-.35 5.741-1.548 10.75-1.198 5.008-2.171 9.444-2.162 9.856.009.412 2.222.75 4.918.75h4.902l2.607-11.25c3.131-13.511 3.139-13.781.516-17.115-2.668-3.393-7.931-3.524-13.937-.348l-4.325 2.287-2.287-2.287c-2.932-2.932-8.654-3.026-13.26-.218m59.402-.503c-1.923 1.003-3.105 1.178-3.333.494-.195-.583-2.517-1.06-5.162-1.06-4.167 0-4.877.3-5.325 2.25-.284 1.237-2.175 9.334-4.203 17.993l-3.687 15.743-67.155.257-67.155.257-.316 2.75-.317 2.75H243v-6h-84.95l.619-3.25c.786-4.132.586-3.984 3.757-2.778 6.034 2.294 11.67.737 16.771-4.633 3.838-4.04 5.803-9.409 5.803-15.852 0-4.589-.435-6.013-2.455-8.032-2.906-2.907-8.432-3.284-13.025-.889m48.982.009c-4.509 2.351-6.594 4.51-8.621 8.925-5.415 11.791 1.221 21.514 14.619 21.422 7.904-.055 11.801-1.811 13.142-5.922 1.464-4.489.966-5.199-2.409-3.437-3.666 1.913-8.679 2.793-11.656 2.046-2.916-.732-5.577-3.204-5.577-5.18 0-1.152 2.138-1.429 11.031-1.429 12.42 0 12.407.008 12.447-7.832.019-3.644-.497-4.796-3.244-7.25-2.925-2.614-3.968-2.917-10-2.912-4.15.004-7.884.606-9.732 1.569m5.498 5.134c-2.012.74-5 3.397-5 4.446 0 1.31 11.778 1.014 12.6-.317.407-.658-.266-1.959-1.552-3-2.327-1.885-3.431-2.091-6.048-1.129m-57.64 1.463c-1.554.752-2.449 2.582-3.265 6.682-.618 3.105-1.395 6.659-1.726 7.896-.549 2.053-.263 2.247 3.264 2.218 4.728-.039 6.885-1.57 8.856-6.288 3.55-8.495-.119-13.902-7.129-10.508m-97.203 9.823c-4.103.97-5.452 2.226-4.992 4.649.873 4.602 10.835 1.69 10.835-3.167 0-2.618-.501-2.745-5.843-1.482m-52.49 38.672c-1.111 1.11-.747 11.063.504 13.81 1.328 2.914 4.75 4.161 7.486 2.728 1.014-.531 3.305-.743 5.093-.472l3.25.494v-8.614c0-8.476-.039-8.613-2.452-8.613-2.31 0-2.47.363-2.75 6.25-.282 5.921-.43 6.25-2.798 6.25s-2.516-.329-2.798-6.25c-.274-5.757-.478-6.25-2.583-6.25-1.257 0-2.586.3-2.952.667m22.583.856c-2.578 1.822-2.958 5.645-.744 7.482.829.688 2.966 1.549 4.75 1.914 1.784.364 3.019 1.095 2.744 1.622-.584 1.121-3.557 1.157-6.75.082-1.858-.626-2.25-.393-2.25 1.334 0 5.069 12.071 4.956 14.929-.139 1.368-2.437 1.342-2.861-.278-4.651-.98-1.083-3.327-2.259-5.216-2.613-5.316-.998-4.312-2.946 1.133-2.2 4.312.591 4.551.5 4.25-1.614-.274-1.933-1.004-2.279-5.318-2.524-3.347-.19-5.744.242-7.25 1.307m18.205.932c-3.344 3.343-3.391 9.317-.098 12.41 4.564 4.289 14.643 3.636 14.643-.947 0-1.54-.443-1.962-1.593-1.521-4.416 1.695-6.145 1.633-8.47-.302l-2.437-2.028 6.25-.034L72 163v-3.443c0-4.273-2.881-6.557-8.268-6.557-2.726 0-4.527.705-6.277 2.455M84 153.206c0 .187 1.377 3.915 3.06 8.285 2.932 7.615 3.068 8.82 1.446 12.759-.59 1.435-.187 1.75 2.246 1.75 2.836 0 3.166-.486 7.511-11.068 3.809-9.274 4.296-11.164 3.005-11.659-2.453-.942-4.534 1.028-6.13 5.798l-1.481 4.429-1.346-3.5c-2.17-5.644-2.867-6.483-5.662-6.816-1.457-.174-2.649-.164-2.649.022m23.312 2.044c-2.856 3.156-3.438 6.512-1.808 10.414 2.287 5.473 10.825 6.956 14.781 2.566 3.625-4.023 2.866-12.008-1.356-14.268-3.378-1.808-9.421-1.138-11.617 1.288M126 159.934c0 5.843.363 7.429 2.098 9.164 1.564 1.564 2.773 1.924 4.75 1.417 1.459-.375 4.34-.633 6.402-.574l3.75.107V152.867l-2.75.317c-2.646.304-2.754.543-2.853 6.316-.097 5.636-.249 6-2.5 6-2.207 0-2.437-.475-2.897-6-.472-5.658-.657-6.018-3.25-6.316l-2.75-.317v7.067m22 1.566v8.5h3c2.962 0 3-.067 3-5.393 0-5.562 1.248-7.217 4.5-5.969 1.135.436 1.5-.18 1.5-2.531 0-3.271-.921-3.755-4.005-2.104-1.252.67-2.079.67-2.493 0-.341-.552-1.718-1.003-3.061-1.003-2.397 0-2.441.155-2.441 8.5m26.455-6.045c-6.741 6.741 1.015 17.978 10.04 14.547 3.894-1.481 5.436-3.817 5.473-8.297.045-5.312-3.451-8.705-8.968-8.705-3.01 0-4.739.648-6.545 2.455m17.858-1.083c.289.755 1.482 4.58 2.649 8.5 1.993 6.694 2.298 7.128 5 7.128 2.583 0 3.056-.538 4.623-5.25l1.746-5.25 1.477 5.303c1.402 5.031 1.632 5.287 4.498 5 2.776-.278 3.211-.867 5.358-7.248 3.025-8.992 2.991-9.763-.412-9.371-2.408.277-2.886.935-3.864 5.316-1.11 4.973-1.122 4.985-2.244 2.206-.62-1.537-1.405-3.899-1.744-5.25-.433-1.722-1.308-2.456-2.928-2.456-1.895 0-2.632.945-4.095 5.25l-1.783 5.25-1.442-5.25c-1.325-4.827-1.68-5.25-4.404-5.25-2.1 0-2.809.4-2.435 1.372m31.063.09c-.261.68-.34 4.342-.175 8.137.29 6.7.379 6.91 3.049 7.217 2.728.314 2.75.269 2.75-5.643 0-4.581.376-6.103 1.627-6.583 2.864-1.099 4.373 1.328 4.373 7.032 0 5.07.143 5.378 2.5 5.378 2.426 0 2.5-.205 2.5-6.929 0-8.971-.931-9.933-9.571-9.883-4.271.024-6.745.471-7.053 1.274m-161.667 3.162c-1.486 1.486-.597 2.376 2.374 2.376 2.02 0 2.942-.431 2.672-1.25-.467-1.418-3.972-2.2-5.046-1.126m48.72 1.804c-.782 3.116.21 6.219 2.236 6.997 3.285 1.261 5.463-3.321 3.728-7.843-.992-2.586-5.255-1.981-5.964.846m68.238-1.761c-1.202 1.201-.698 7.062.706 8.228 3.185 2.643 6.354-1.851 4.586-6.502-.857-2.256-3.802-3.216-5.292-1.726" fill="#1976D2" fill-rule="evenodd"/><path fill-opacity=".294" d="M41.745 42.755L6 78.51v100l35.755 35.745L77.51 250h100.98l35.755-35.745L250 178.51V78.49l-35.755-35.745L178.49 7h-101L41.745 42.755m155.901 43.009c-.587.95-9.646 39.647-9.646 41.206 0 .739 1.811 1.029 5.202.832l5.203-.302 4.75-20.421c2.613-11.232 4.521-20.795 4.239-21.25-.643-1.042-9.11-1.098-9.748-.065M32 86.936c-4.763.961-9.557 3.594-11.439 6.281-.876 1.25-1.561 4.286-1.561 6.917 0 3.996.449 5.066 3.041 7.247 1.672 1.407 6.126 3.478 9.897 4.601 7.822 2.329 9.499 4.435 5.873 7.374-3.02 2.448-12.252 1.771-17.154-1.259C18.791 116.944 16.83 116 16.3 116c-1.572 0-3.364 9.335-1.967 10.243 2.981 1.936 9.905 2.938 17.723 2.566C44.854 128.201 51 123.56 51 114.504c0-5.069-3.081-7.701-12.809-10.94-8.313-2.769-9.907-4.448-6.991-7.364 1.947-1.947 11.861-1.463 16.292.796 2.154 1.098 4.294 1.618 4.757 1.155.463-.463.934-2.824 1.046-5.246L53.5 88.5 48 87.346c-6.253-1.311-10.938-1.431-16-.41m188.637 10.529c-4.338 1.546-9.11 5.685-11.226 9.735-.776 1.486-1.411 5.137-1.411 8.115 0 9.279 5.473 13.685 17 13.685 8.849 0 12.548-1.829 13.32-6.584.34-2.096.515-3.914.388-4.041-.126-.126-2.7.628-5.719 1.677-5.896 2.048-10.298 1.776-13.239-.818-3.973-3.505-2.305-4.234 9.689-4.234h11.438l.677-4.514c.957-6.382-.894-10.282-5.978-12.591-4.817-2.188-9.621-2.326-14.939-.43m-158.822.785c-.862.688-1.848 2.765-2.19 4.616-.602 3.262-.536 3.346 2.127 2.709 6.502-1.557 12.272-1.8 13.743-.579 2.541 2.108 1.739 2.695-4.588 3.356-3.351.35-8.044 1.5-10.429 2.555C49.862 115.603 50.992 129 62.004 129c2.253 0 5.423-.687 7.046-1.526 1.691-.874 2.95-1.088 2.95-.5 0 .573 2.355 1.026 5.331 1.026h5.33l2.747-11.783C89.403 99.081 87.967 97 72.144 97c-5.507 0-9.344.464-10.329 1.25m35.67 0C96.742 100.302 91 125.726 91 126.963c0 .748 1.793 1.037 5.198.839l5.198-.302 2.318-10c2.398-10.346 3.778-12.5 8.009-12.5 3.424 0 3.635 1.807 1.341 11.467-2.88 12.125-3.001 11.692 3.167 11.335l5.231-.302 2.206-9.968c1.415-6.391 2.836-10.427 3.961-11.25 2.285-1.671 6.295-1.645 6.943.046.281.73-.574 5.926-1.9 11.546l-2.409 10.218 5.54-.296 5.541-.296 2.306-10c2.866-12.428 2.932-15.918.35-18.5-2.632-2.632-8.853-2.626-14.026.013l-3.947 2.014-2.014-2.014c-2.459-2.459-8.792-2.696-13.063-.487-2.644 1.367-2.95 1.367-2.95 0 0-1.959-9.813-2.216-10.515-.276m58.718.448c-.508.991-2.647 9.339-4.754 18.552L147.618 134H12.873l.314 3.25.313 3.25 114.75.254 114.75.254V134h-84.827l.742-2.75c.722-2.674.912-2.74 6.885-2.401 5.001.284 6.813-.065 9.739-1.873 9.436-5.832 13.307-21.221 6.94-27.588-2.844-2.844-8.95-3.23-13.539-.857-2.232 1.154-2.897 1.216-2.7.25.175-.864-1.265-1.379-4.427-1.583-3.703-.239-4.881.076-5.61 1.5m12.297 6.084c-1.1.227-2.433.824-2.963 1.328-1.172 1.115-4.447 14.646-3.721 15.372 1.311 1.311 6.328.298 8.722-1.761 4.259-3.663 5.122-13.593 1.296-14.897-.734-.25-2.234-.269-3.334-.042m53.739-.14c-.694.293-1.662 1.281-2.152 2.195-.783 1.464-.179 1.663 5.048 1.663 5.368 0 5.911-.192 5.652-2-.218-1.518-1.13-2.047-3.787-2.195-1.925-.107-4.068.045-4.761.337M66.223 116.557c-2.869 2.009-2.839 4.25.066 4.979 2.565.644 7.711-.978 7.711-2.429 0-.519.273-1.655.607-2.525.827-2.156-5.316-2.175-8.384-.025M42.5 152.719c-5.011 1.221-7.217 6.6-3.859 9.409.903.754 3.265 1.887 5.25 2.517l3.609 1.145-3.316.105c-1.823.058-4.186-.361-5.25-.93-1.707-.914-1.934-.692-1.934 1.883 0 2.182.568 3.071 2.25 3.522 4.636 1.242 8.648.622 11.424-1.766 2.447-2.105 2.665-2.743 1.794-5.25-.787-2.267-1.862-3.048-5.229-3.796-2.332-.518-4.239-1.306-4.239-1.75 0-1.103 3.321-1.017 6.435.167 2.329.886 2.565.746 2.565-1.525 0-3.476-4.037-5.062-9.5-3.731m18 .189c-9.835 4.211-6.601 18.131 4.2 18.078 5.55-.027 7.3-1.019 7.3-4.138 0-2.63-.202-2.81-2.046-1.823-2.578 1.379-8.166.882-8.71-.775-.298-.908 1.254-1.25 5.673-1.25 5.785 0 6.083-.12 6.083-2.444 0-5.297-7.407-9.829-12.5-7.648m48.829.538c-6.098 2.675-7.265 9.772-2.406 14.631 8.379 8.379 21.776-3.68 13.827-12.447-2.833-3.124-7.322-3.983-11.421-2.184m68.171-.538c-5.159 2.209-7.308 8.845-4.539 14.019 2.407 4.498 10.376 5.407 14.711 1.679 5.69-4.895 2.507-14.78-5.172-16.056-1.65-.275-3.9-.114-5 .358m54.623-.005c-.758.48-3.12.639-5.25.353l-3.873-.519V170h6v-6c0-5.733.111-6 2.5-6s2.5.267 2.5 6v6h6v-7.443c0-6.558-.264-7.629-2.223-9-2.521-1.766-3.686-1.901-5.654-.654M16 160c0 5.791.365 7.365 2.113 9.113 1.674 1.674 2.866 1.987 5.75 1.511 2-.331 5.118-.607 6.927-.613l3.291-.011-.291-8.25-.29-8.25-3.25-.313-3.25-.314v6.095c0 4.666-.375 6.239-1.601 6.709-2.309.886-3.366-1.435-3.384-7.427C22 153.087 21.95 153 19 153h-3v7m68.005-6.313c.002.447 1.364 4.308 3.026 8.58 2.318 5.962 2.782 8.213 1.995 9.685-1.731 3.233-1.213 4.194 2.083 3.861 2.897-.292 3.364-.929 6.871-9.369 5.736-13.808 5.679-13.444 2.129-13.444-2.73 0-3.202.492-4.809 5.018l-1.782 5.019-1.589-4.769c-1.406-4.217-1.955-4.804-4.759-5.081-1.743-.173-3.168.052-3.165.5M126 160.345c0 5.846.373 7.683 1.829 9 1.867 1.69 6.26 2.233 7.558.935.396-.396 2.271-.587 4.167-.424l3.446.297V153h-2.952c-2.923 0-2.956.062-3.25 6.25-.262 5.484-.543 6.25-2.298 6.25s-2.036-.766-2.298-6.25c-.294-6.188-.327-6.25-3.25-6.25H126v7.345m22 1.155v8.5h3c2.97 0 3-.056 3-5.5s.03-5.5 3-5.5c2.667 0 3-.333 3-3 0-2.222-.467-3-1.8-3-.99 0-2.34.54-3 1.2-.933.933-1.2.933-1.2 0 0-.667-1.333-1.2-3-1.2h-3v8.5m44.534-5.346c.381 1.735 1.469 5.448 2.419 8.25 1.587 4.687 2.002 5.12 5.166 5.393 3.33.288 3.483.143 4.765-4.5l1.324-4.797 1.426 4.75c1.324 4.409 1.662 4.75 4.699 4.75 3.182 0 3.338-.201 5.603-7.25 1.281-3.988 2.556-7.846 2.832-8.573.369-.972-.399-1.238-2.883-1-2.987.285-3.494.764-4.311 4.073-.51 2.063-1.253 3.75-1.651 3.75-.398 0-1.123-1.687-1.611-3.75-.771-3.259-1.264-3.75-3.763-3.75-2.55 0-3.076.567-4.635 5-.968 2.75-1.796 4.325-1.842 3.5-.046-.825-.552-3.187-1.125-5.25-.91-3.28-1.421-3.75-4.073-3.75-2.883 0-2.999.156-2.34 3.154M61.5 158c-.362.585.676 1 2.5 1 1.824 0 2.862-.415 2.5-1-.34-.55-1.465-1-2.5-1s-2.16.45-2.5 1m49.541 1.393c-1.356 3.566-.221 6.607 2.467 6.607 1.598 0 2.464-.751 2.908-2.521 1.314-5.235-3.536-8.923-5.375-4.086m67.406-.037c-1.031 4.105-.179 6.144 2.567 6.144 2.234 0 2.486-.406 2.486-4 0-3.368-.35-4.05-2.215-4.315-1.655-.235-2.372.313-2.838 2.171" fill="#1976D2" fill-rule="evenodd"/></svg>